<?xml version="1.0" standalone="no"?>
<!DOCTYPE svg PUBLIC "-//W3C//DTD SVG 20010904//EN"
 "http://www.w3.org/TR/2001/REC-SVG-20010904/DTD/svg10.dtd">
<svg version="1.0" xmlns="http://www.w3.org/2000/svg"
 width="1280.000000pt" height="1280.000000pt" viewBox="0 0 1280.000000 1280.000000"
 preserveAspectRatio="xMidYMid meet">
<metadata>
Created by potrace 1.15, written by Peter Selinger 2001-2017
</metadata>
<g transform="translate(0.000000,1280.000000) scale(0.100000,-0.100000)"
fill="#000000" stroke="none">
<path d="M4615 12293 c-111 -15 -249 -71 -354 -142 -339 -231 -573 -724 -653
-1376 -20 -166 -17 -642 5 -825 83 -676 303 -1248 640 -1666 121 -150 278
-284 427 -367 139 -77 342 -125 476 -113 330 30 620 266 815 662 167 341 253
767 252 1254 -1 391 -54 756 -163 1119 -216 715 -624 1252 -1070 1409 -127 45
-261 61 -375 45z"/>
<path d="M8277 12244 c-235 -51 -438 -172 -657 -393 -189 -191 -338 -404 -481
-691 -197 -395 -312 -788 -371 -1270 -20 -161 -17 -656 4 -797 86 -569 296
-961 614 -1147 34 -19 104 -50 155 -68 89 -31 102 -32 239 -33 171 0 245 17
405 94 352 170 669 524 911 1016 184 375 302 769 359 1195 22 167 31 543 16
707 -69 762 -373 1265 -835 1383 -95 24 -256 26 -359 4z"/>
<path d="M2070 9539 c-355 -92 -628 -409 -744 -864 -53 -207 -60 -279 -61
-585 0 -253 3 -301 23 -424 105 -622 362 -1165 736 -1554 274 -284 549 -437
853 -472 274 -32 538 68 734 278 434 464 512 1375 192 2232 -273 731 -786
1274 -1313 1391 -118 26 -317 25 -420 -2z"/>
<path d="M10315 9300 c-526 -120 -1038 -646 -1319 -1355 -138 -351 -203 -657
-213 -1011 -6 -224 4 -360 42 -550 101 -500 375 -844 754 -946 91 -25 301 -29
396 -9 287 60 531 206 791 472 618 634 922 1730 708 2549 -119 456 -389 764
-746 850 -109 26 -298 26 -413 0z"/>
<path d="M6059 7295 c-436 -68 -917 -330 -1460 -796 -513 -439 -1146 -1209
-1596 -1939 -347 -562 -705 -1326 -846 -1805 -226 -762 -214 -1309 36 -1675
52 -75 206 -228 308 -305 249 -187 548 -307 904 -361 166 -25 579 -26 785 -1
416 50 709 118 1460 334 201 57 448 126 550 151 184 46 186 47 350 46 238 0
302 -20 845 -257 425 -185 639 -259 880 -303 148 -27 424 -25 562 5 293 62
578 205 833 419 117 98 347 333 418 427 170 225 240 535 212 935 -38 550 -228
1158 -604 1935 -476 982 -1223 1978 -1911 2550 -449 373 -878 593 -1258 644
-106 15 -362 12 -468 -4z m-316 -841 c71 -64 86 -86 87 -131 0 -26 7 -35 45
-58 39 -22 52 -25 92 -19 43 6 48 5 69 -22 l23 -28 23 21 c54 49 131 69 223
58 52 -7 56 -9 51 -29 -4 -11 -11 -61 -16 -109 -10 -90 -22 -126 -47 -140 -10
-6 -11 -12 -3 -21 7 -10 6 -17 -4 -25 -8 -6 -12 -20 -9 -31 3 -11 -4 -31 -16
-46 -12 -15 -21 -34 -21 -43 0 -9 -8 -28 -17 -41 -10 -14 -17 -27 -16 -30 0
-3 -3 -4 -9 -2 -5 1 -12 -6 -15 -17 -3 -10 -22 -26 -45 -34 -22 -9 -37 -21
-33 -27 7 -12 160 -13 373 -3 l142 6 60 58 c100 96 167 92 220 -14 33 -67 37
-87 16 -87 -12 0 -13 -7 -5 -32 13 -48 12 -50 -17 -31 l-26 17 7 -32 c5 -25 3
-32 -9 -32 -25 0 -19 -16 17 -44 26 -21 29 -28 17 -36 -18 -11 -17 -11 45 -43
l49 -24 -32 -8 c-37 -8 -41 -21 -11 -30 16 -5 18 -9 9 -15 -7 -4 -10 -14 -8
-21 3 -8 2 -21 -3 -30 -5 -11 7 -38 42 -90 39 -58 46 -75 33 -77 -11 -3 -15
-11 -11 -28 5 -27 3 -28 -23 -14 -18 10 -18 9 -4 -25 10 -24 11 -35 3 -35 -6
0 -8 -7 -5 -15 3 -8 9 -22 12 -30 5 -13 2 -14 -21 -5 -14 5 -29 10 -32 10 -3
0 9 -25 26 -55 17 -30 31 -57 31 -59 0 -2 -15 -3 -32 -2 -31 1 -33 -1 -32 -34
0 -19 4 -43 9 -54 7 -16 6 -17 -14 -6 -30 15 -33 11 -21 -31 6 -18 10 -37 10
-40 0 -12 -80 -47 -86 -38 -12 20 -22 7 -28 -35 -11 -72 -23 -81 -106 -80
-101 1 -111 13 -65 84 42 66 51 105 37 173 -17 83 -30 111 -46 98 -11 -9 -15
-7 -19 9 -3 13 -11 18 -20 14 -10 -3 -18 2 -22 17 -7 20 -8 21 -17 5 -7 -13
-13 -14 -23 -6 -10 9 -15 6 -20 -10 -4 -12 -13 -19 -20 -16 -16 6 -45 -24 -45
-47 0 -10 -5 -14 -15 -11 -12 5 -15 -6 -15 -64 0 -67 -1 -69 -24 -65 -19 4
-30 -4 -57 -42 -39 -54 -73 -75 -124 -75 -37 0 -125 19 -125 27 0 17 36 67 65
89 19 14 35 33 35 41 0 8 -5 11 -11 8 -6 -4 -17 1 -25 11 -13 18 -14 18 -20
-4 -4 -14 -12 -21 -20 -18 -7 3 -16 -4 -19 -14 -4 -12 -12 -17 -22 -13 -13 5
-15 2 -11 -15 4 -15 2 -22 -8 -22 -10 0 -14 -15 -14 -60 0 -45 -3 -60 -14 -60
-11 0 -13 -7 -6 -30 8 -28 7 -30 -11 -25 -14 5 -26 -1 -40 -19 -19 -25 -25
-26 -112 -26 -51 0 -109 5 -129 10 l-37 11 0 66 c0 62 2 67 35 98 27 25 34 40
34 69 0 28 -4 36 -19 36 -14 0 -17 6 -13 25 3 18 0 25 -12 25 -19 0 -20 9 -6
44 10 29 0 35 -20 11 -22 -26 -25 -17 -22 55 4 74 -4 86 -31 48 -16 -23 -16
-23 -16 11 -1 30 -3 32 -18 20 -15 -12 -16 -12 -10 4 4 10 10 37 13 60 l6 42
-21 -25 -21 -25 0 29 c0 25 -3 28 -26 22 -23 -6 -26 -4 -21 13 6 24 3 25 -24
11 -22 -12 -24 -7 -9 21 9 16 7 19 -8 19 -19 0 -19 19 3 143 3 20 0 27 -11 27
-19 0 -19 1 30 72 33 49 37 60 26 73 -11 13 -8 21 20 50 29 30 32 38 26 72 -4
21 -9 55 -12 76 -4 26 -11 37 -23 37 -24 0 -41 20 -41 47 0 13 -5 23 -10 23
-6 0 -8 16 -4 42 7 38 6 41 -14 36 -18 -5 -16 1 15 48 20 30 34 57 31 59 -3 3
-17 1 -32 -4 l-26 -10 30 53 c17 29 30 56 30 59 0 4 -11 7 -25 7 -24 0 -22 3
24 44 42 37 47 45 30 49 -25 7 -28 67 -3 67 13 0 14 6 7 33 -4 17 -8 50 -7 71
0 36 7 46 68 103 38 35 70 63 73 63 3 0 33 -25 66 -56z m-568 -2758 c260 -72
379 -253 401 -611 16 -263 -41 -497 -150 -613 -92 -98 -209 -139 -421 -148
-127 -6 -489 17 -503 31 -4 4 -7 301 -7 661 0 548 2 656 14 663 8 5 66 14 130
21 64 6 123 13 131 15 44 11 350 -4 405 -19z m1250 -1 c208 -55 320 -176 372
-400 26 -114 26 -416 0 -530 -71 -310 -286 -473 -592 -451 -297 21 -455 140
-520 391 -22 88 -37 276 -29 385 23 347 154 544 406 615 67 19 277 13 363 -10z
m1290 1 c84 -23 132 -50 187 -103 83 -81 117 -200 118 -403 1 -200 -28 -304
-111 -395 -85 -93 -199 -135 -406 -150 l-93 -7 0 -159 0 -159 -218 0 c-156 0
-221 3 -230 12 -9 9 -12 174 -12 680 l0 668 23 5 c147 36 626 43 742 11z
m-3602 5 c21 -8 26 -22 45 -113 12 -56 55 -269 97 -471 67 -327 145 -750 145
-784 0 -16 -401 -19 -430 -3 -14 7 -23 39 -40 130 l-23 120 -108 0 c-97 0
-109 -2 -109 -17 0 -10 -9 -69 -21 -130 l-21 -113 -214 0 c-194 0 -215 2 -221
17 -4 10 3 78 16 153 36 220 233 1194 244 1208 12 15 601 18 640 3z m4973 -4
c14 -14 18 -341 5 -366 -11 -20 -19 -21 -144 -21 l-132 0 3 -222 c1 -123 -1
-344 -5 -493 l-8 -270 -215 -2 c-121 -2 -221 1 -230 6 -12 8 -15 84 -18 494
l-4 485 -37 6 c-20 3 -79 6 -132 6 -79 0 -98 3 -103 16 -8 22 -8 359 1 368 10
9 1010 3 1019 -7z"/>
<path d="M4950 3015 l0 -305 38 0 c84 0 107 66 106 305 -1 240 -23 305 -106
305 l-38 0 0 -305z"/>
<path d="M6181 3301 c-34 -34 -44 -97 -45 -276 -1 -250 24 -320 109 -313 77 6
100 93 93 348 -6 210 -27 260 -107 260 -17 0 -40 -9 -50 -19z"/>
<path d="M7400 3175 l0 -155 40 0 c91 0 115 37 115 178 0 86 -2 95 -24 113
-16 13 -39 19 -77 19 l-54 0 0 -155z"/>
<path d="M3788 3360 c-4 -8 -16 -112 -28 -230 -12 -118 -24 -223 -27 -232 -4
-16 4 -18 62 -18 l66 0 -6 53 c-26 205 -63 439 -67 427z"/>
</g>
</svg>
